<svg width="94" height="61" viewBox="0 0 94 61" fill="none" xmlns="http://www.w3.org/2000/svg">
<path opacity="0.1" d="M0.341692 28.0706C1.35959 34.6132 11.5395 40.1494 19.0945 38.2211C26.1113 36.288 26.1902 27.759 18.7005 22.4285C9.33955 15.6292 -1.45924 18.7986 0.341692 28.0706ZM20.6692 12.8274C21.9498 20.0983 28.0989 25.0539 34.835 24.3886C39.9544 23.8902 43.4968 19.0217 43.2799 13.2122C42.8086 5.76711 34.7859 -0.112379 27.7676 2.00224C23.7184 3.23618 20.1668 8.83022 20.6692 12.8274ZM17.595 55.267C20.7729 61.1031 25.6117 61.8727 41.7887 59.1146C48.2605 57.9024 52.8398 57.7621 59.5612 58.7301C64.4016 59.3181 70.0517 59.7322 72.2067 59.5701C77.3261 59.0718 81.6706 54.9367 81.7065 50.9443C81.4684 47.494 76.9393 42.0085 72.913 40.7018C71.3028 40.1428 67.2884 37.566 64.0828 34.8149C56.337 28.0302 49.6275 25.7921 43.1508 27.5486C39.1033 28.6011 37.2071 29.8544 33.1252 34.7178C30.404 37.96 26.0643 41.732 23.8978 43.1644C17.4015 47.0985 15.4792 51.0738 17.595 55.267ZM48.9399 12.3558C48.6135 18.7048 54.4881 24.0208 60.955 23.3531C69.0386 22.5184 73.7045 12.7606 69.4614 5.6445C66.5445 0.718141 63.5944 -0.578995 58.1977 0.824289C53.0718 2.04853 48.9873 7.09314 48.9399 12.3558ZM70.8597 29.613C72.3866 39.4269 89.3706 36.8576 93.5047 26.1872C94.8882 22.0255 92.507 17.2853 88.4807 15.9786C86.6013 15.4173 83.6387 15.5723 80.3987 16.6321C74.1896 18.5725 69.8304 24.3407 70.8597 29.613Z" fill="#171817"/>
</svg>
